<svg width="687" height="701" viewBox="0 0 687 701" fill="none" xmlns="http://www.w3.org/2000/svg">
<g clip-path="url(#clip0_1_8)">
<path opacity="0.2" d="M686.872 58.1C687.929 82.937 329.642 59.157 266.229 214.52C202.816 369.883 258.302 428.012 213.384 561.709C183.228 651.469 97.3352 660.009 23.0282 687.746C-12.2538 700.918 -4.00381 753.012 33.6212 754.679C375.259 769.813 526.321 913.106 643.012 947.479C720.165 970.202 691.365 826.2 575.635 672.951C459.905 519.702 584.882 0.5 686.872 0.5" stroke="#E7A32C" stroke-miterlimit="10"/>
<path opacity="0.257" d="M686.759 78.257C687.303 99.702 349.628 77.057 289.913 225.749C242.932 342.734 266.576 401.883 257.224 486.234C254.58 509.443 249.546 532.317 242.201 554.492C214.546 639.47 134.545 648.827 64.9632 675.841C31.9532 688.604 39.3071 737.478 73.8921 739.496C387.771 758.062 520.705 893.351 634.782 925.773C709.262 946.94 693.511 829.192 600.612 692.519C593.539 682.092 585.998 671.626 577.927 661.232C530.927 600.703 512.244 492.96 526.191 378.478C546.824 204.21 631.062 30.778 686.759 24.772" stroke="#E9A72E" stroke-miterlimit="10"/>
<path opacity="0.314" d="M686.645 98.414C686.676 116.467 369.607 94.941 313.596 236.976C270.431 346.441 292.203 402.685 284.457 482.853C282.237 504.737 277.732 526.328 271.016 547.274C245.861 627.474 171.753 637.647 106.894 663.935C76.158 676.288 82.6131 721.942 114.161 724.313C400.281 746.313 515.123 873.513 626.551 904.069C703.772 925.246 692.145 812.845 602.57 680.1C595.67 669.829 588.253 659.582 580.217 649.516C531.875 588.964 503.089 491.042 517.491 382.126C539.221 217.801 636.978 61.046 686.642 49.042" stroke="#EAAA30" stroke-miterlimit="10"/>
<path opacity="0.371" d="M686.532 118.571C686.05 133.233 389.578 112.816 337.281 248.205C297.908 350.136 318.056 403.514 311.698 479.473C309.925 500.033 305.948 520.344 299.836 540.055C277.183 615.47 209.024 626.605 148.836 652.028C120.4 664.038 125.93 706.405 154.436 709.128C412.796 734.559 509.573 853.594 618.325 882.365C698.3 903.522 690.783 796.497 604.533 667.68C597.798 657.564 590.507 647.54 582.513 637.799C532.805 577.239 493.734 489.104 508.798 385.774C531.308 231.361 642.898 91.318 686.532 73.313" stroke="#ECAE33" stroke-miterlimit="10"/>
<path opacity="0.429" d="M686.419 138.726C685.419 149.996 409.538 130.676 360.965 259.432C325.359 353.815 343.749 404.32 338.934 476.091C337.559 495.321 334.113 514.346 328.653 532.836C308.316 603.416 246.253 615.464 190.766 640.12C164.612 651.741 169.241 690.813 194.707 693.944C425.37 722.306 504.041 833.606 610.096 860.66C692.836 881.767 689.419 780.148 606.496 655.26C599.847 645.115 592.605 635.372 584.807 626.082C533.707 565.529 484.367 487.17 500.107 389.421C523.371 244.921 648.825 121.59 686.425 97.583" stroke="#EEB135" stroke-miterlimit="10"/>
<path opacity="0.486" d="M686.306 158.883C684.797 166.762 429.483 148.522 384.65 270.659C352.781 357.478 369.437 405.123 366.172 472.71C365.215 490.611 362.297 508.352 357.472 525.617C339.595 591.408 283.49 604.317 232.701 628.217C208.83 639.446 212.555 675.266 234.979 678.764C437.921 710.425 498.53 813.564 601.868 838.964C687.384 859.985 688.054 763.808 608.454 642.847C601.993 632.88 594.857 623.367 587.098 614.373C534.579 553.845 474.977 485.248 491.405 393.073C515.391 258.496 654.738 151.867 686.305 121.858" stroke="#F0B537" stroke-miterlimit="10"/>
<path opacity="0.543" d="M686.193 179.04C684.172 183.527 449.41 166.349 408.334 281.888C380.165 361.123 395.116 405.923 393.409 469.33C392.864 485.9 390.476 502.358 386.289 518.399C370.876 579.399 320.724 593.173 274.636 616.306C253.049 627.141 255.872 659.706 275.252 663.576C450.485 698.532 493.033 793.444 593.639 817.254C681.939 838.154 686.434 747.621 610.416 630.422C604.128 620.641 597.1 611.357 589.392 602.651C535.427 542.169 465.57 483.316 482.71 396.72C507.382 272.066 660.658 182.138 686.194 146.128" stroke="#F1B839" stroke-miterlimit="10"/>
<path opacity="0.6" d="M686.079 199.196C683.545 200.291 469.308 184.151 432.018 293.115C407.505 364.744 420.786 406.715 420.645 465.948C420.508 481.186 418.65 496.359 415.106 511.18C402.161 567.401 357.958 582.018 316.569 604.399C297.269 614.837 299.189 644.158 315.522 648.392C463.085 686.643 487.551 773.28 585.41 795.549C676.51 816.28 685.058 731.278 612.376 618C606.27 608.4 599.347 599.343 591.684 590.932C536.242 530.52 456.135 481.39 474.012 400.365C499.326 285.634 666.576 212.408 686.079 170.396" stroke="#F3BC3C" stroke-miterlimit="10"/>
<path opacity="0.657" d="M685.966 219.353C682.919 217.053 489.166 201.926 455.702 304.343C434.791 368.343 446.442 407.512 447.882 462.567C448.145 476.471 446.817 490.359 443.924 503.961C433.453 555.403 395.193 570.854 358.504 592.491C341.485 602.528 342.513 628.606 355.795 633.207C475.727 674.756 482.082 753.065 577.183 773.844C671.094 794.362 683.693 714.927 614.338 605.58C608.41 596.161 601.592 587.332 593.978 579.215C537.031 518.9 446.67 479.466 465.317 404.015C491.217 299.206 672.497 242.682 685.968 194.669" stroke="#F5C03E" stroke-miterlimit="10"/>
<path opacity="0.714" d="M685.853 239.509C682.293 233.82 508.969 219.665 479.387 315.57C462.01 371.906 472.081 408.3 475.119 459.185C475.774 471.753 474.976 484.356 472.74 496.741C464.754 543.409 432.426 559.679 400.44 580.583C385.704 590.213 385.846 613.057 396.068 618.022C488.442 662.897 476.622 732.804 568.955 752.139C665.686 772.395 682.341 698.57 616.3 593.159C610.549 583.922 603.835 575.32 596.272 567.497C537.789 507.309 437.163 477.538 456.622 407.659C483.045 312.766 678.422 272.951 685.855 218.936" stroke="#F6C340" stroke-miterlimit="10"/>
<path opacity="0.771" d="M685.739 259.665C681.666 250.585 528.679 237.358 503.071 326.798C489.143 375.439 497.697 409.088 502.356 455.805C503.391 467.038 503.122 478.353 501.556 489.524C496.066 531.424 469.656 548.491 442.371 568.677C429.915 577.893 429.185 597.52 436.335 602.839C501.261 651.139 471.164 712.502 560.722 730.439C660.283 750.376 680.995 682.209 618.255 580.739C612.678 571.684 606.067 563.308 598.555 555.78C538.505 495.752 427.591 475.603 447.916 411.307C474.782 326.315 684.327 303.223 685.733 243.207" stroke="#F8C742" stroke-miterlimit="10"/>
<path opacity="0.829" d="M685.627 279.822C681.041 267.351 548.242 254.995 526.756 338.022C516.17 378.93 523.284 409.875 529.594 452.422C530.993 462.32 531.255 472.345 530.376 482.302C527.404 519.439 506.876 537.275 484.308 556.767C474.129 565.558 472.537 582.01 476.608 587.652C514.153 639.657 465.715 692.157 552.494 708.729C654.894 728.284 679.668 665.829 620.217 568.318C614.815 559.446 608.309 551.295 600.854 544.062C539.203 484.231 417.963 473.646 439.225 414.953C466.437 339.835 690.251 333.494 685.625 267.476" stroke="#FACA44" stroke-miterlimit="10"/>
<path opacity="0.886" d="M685.514 299.978C680.414 284.115 567.537 272.556 550.441 349.254C543.055 382.389 548.831 410.678 556.832 449.044C558.573 457.612 559.365 466.346 559.195 475.087C558.772 507.464 544.076 526.039 526.244 544.864C518.33 553.218 515.844 566.552 516.883 572.472C526.69 628.587 460.273 671.782 544.27 687.029C649.518 706.129 678.506 649.366 622.183 555.901C616.959 547.208 610.555 539.282 603.152 532.349C539.868 472.757 408.239 471.649 430.533 418.605C457.975 353.311 696.175 363.771 685.517 291.751" stroke="#FCCE47" stroke-miterlimit="10"/>
<path opacity="0.943" d="M685.4 320.134C679.788 300.879 586.292 290.025 574.124 360.48C569.749 385.812 574.324 411.496 584.067 445.661C586.12 452.912 587.441 460.351 588.011 467.866C590.187 495.479 581.223 514.766 568.176 532.954C562.508 540.854 559.086 551.054 557.152 557.284C538.538 617.234 454.826 651.365 536.038 665.321C644.145 683.899 677.138 633.014 624.138 543.478C619.082 534.969 612.778 527.267 605.438 520.628C540.485 461.321 398.375 469.575 421.83 422.249C449.365 366.69 702.087 394.039 685.396 316.017" stroke="#FDD149" stroke-miterlimit="10"/>
<path d="M685.287 340.291C708.01 424.314 440.616 379.925 413.137 425.899C385.658 471.873 576.427 445.451 626.101 531.06C675.775 616.669 638.783 661.586 527.809 643.619C416.835 625.652 665.209 581.791 611.304 442.281C557.399 302.771 677.49 311.461 685.287 340.291Z" stroke="#FFD54B" stroke-miterlimit="10"/>
</g>
<defs>
<clipPath id="clip0_1_8">
<rect width="687" height="701" fill="white"/>
</clipPath>
</defs>
</svg>
